<?xml version="1.0" encoding="UTF-8" standalone="no"?>
<!DOCTYPE svg PUBLIC "-//W3C//DTD SVG 1.1//EN" "http://www.w3.org/Graphics/SVG/1.1/DTD/svg11.dtd">
<svg width="100%" height="100%" viewBox="0 0 1806 2503" version="1.1" xmlns="http://www.w3.org/2000/svg" xmlns:xlink="http://www.w3.org/1999/xlink" xml:space="preserve" xmlns:serif="http://www.serif.com/" style="fill-rule:evenodd;clip-rule:evenodd;stroke-linecap:round;stroke-linejoin:round;stroke-miterlimit:1.5;">
    <g transform="matrix(1,0,0,1,-422.611,-365.628)">
        <g transform="matrix(1.33149,0,0,1.30892,-79.7584,-225.768)">
            <rect x="668.126" y="979.305" width="771.734" height="1055.75" style="fill:none;stroke:black;stroke-width:1.42px;"/>
        </g>
        <g transform="matrix(1.70371,0,0,1.88797,-468.607,-1224.37)">
            <rect x="668.126" y="979.305" width="771.734" height="1055.75" style="fill:none;stroke:black;stroke-width:1.51px;"/>
        </g>
        <g transform="matrix(1.70371,0,0,0.201372,-468.607,169.777)">
            <rect x="668.126" y="979.305" width="771.734" height="1055.75" style="fill:none;stroke:black;stroke-width:2.23px;"/>
        </g>
        <g transform="matrix(1.70371,0,0,0.201372,-468.607,2456.48)">
            <rect x="668.126" y="979.305" width="771.734" height="1055.75" style="fill:none;stroke:black;stroke-width:2.23px;"/>
        </g>
        <g transform="matrix(0.275482,0,0,1.83204,239.909,-1140.06)">
            <rect x="668.126" y="979.305" width="771.734" height="1055.75" style="fill:none;stroke:black;stroke-width:2.07px;"/>
        </g>
        <g transform="matrix(0.275482,0,0,1.83204,1830.18,-1140.06)">
            <rect x="668.126" y="979.305" width="771.734" height="1055.75" style="fill:none;stroke:black;stroke-width:2.07px;"/>
        </g>
        <g>
            <g transform="matrix(1,0,0,0.49798,0,355.837)">
                <g>
                    <g transform="matrix(1.34008,0,0,0.988388,-169.862,8.23069)">
                        <rect x="462.64" y="708.811" width="9.379" height="1853.6" style="fill:none;stroke:rgb(0,255,0);stroke-width:1.24px;stroke-dasharray:1.24,1.24;"/>
                    </g>
                    <g transform="matrix(1.34008,0,0,0.988388,-133.034,8.23069)">
                        <rect x="462.64" y="708.811" width="9.379" height="1853.6" style="fill:none;stroke:rgb(0,255,0);stroke-width:1.24px;stroke-dasharray:1.24,1.24;"/>
                    </g>
                    <g transform="matrix(1.34008,0,0,0.988388,-96.2066,8.23069)">
                        <rect x="462.64" y="708.811" width="9.379" height="1853.6" style="fill:none;stroke:rgb(0,255,0);stroke-width:1.24px;stroke-dasharray:1.24,1.24;"/>
                    </g>
                    <g transform="matrix(1.34008,0,0,0.988388,-59.3789,8.23069)">
                        <rect x="462.64" y="708.811" width="9.379" height="1853.6" style="fill:none;stroke:rgb(0,255,0);stroke-width:1.24px;stroke-dasharray:1.24,1.24;"/>
                    </g>
                    <g transform="matrix(1.34008,0,0,0.988388,-22.5511,8.23069)">
                        <rect x="462.64" y="708.811" width="9.379" height="1853.6" style="fill:none;stroke:rgb(0,255,0);stroke-width:1.24px;stroke-dasharray:1.24,1.24;"/>
                    </g>
                </g>
                <g transform="matrix(1,0,0,1,1591.13,-2.27374e-13)">
                    <g transform="matrix(1.34008,0,0,0.988388,-169.862,8.23069)">
                        <rect x="462.64" y="708.811" width="9.379" height="1853.6" style="fill:none;stroke:rgb(0,255,0);stroke-width:1.24px;stroke-dasharray:1.24,1.24;"/>
                    </g>
                    <g transform="matrix(1.34008,0,0,0.988388,-133.034,8.23069)">
                        <rect x="462.64" y="708.811" width="9.379" height="1853.6" style="fill:none;stroke:rgb(0,255,0);stroke-width:1.24px;stroke-dasharray:1.24,1.24;"/>
                    </g>
                    <g transform="matrix(1.34008,0,0,0.988388,-96.2066,8.23069)">
                        <rect x="462.64" y="708.811" width="9.379" height="1853.6" style="fill:none;stroke:rgb(0,255,0);stroke-width:1.24px;stroke-dasharray:1.24,1.24;"/>
                    </g>
                    <g transform="matrix(1.34008,0,0,0.988388,-59.3789,8.23069)">
                        <rect x="462.64" y="708.811" width="9.379" height="1853.6" style="fill:none;stroke:rgb(0,255,0);stroke-width:1.24px;stroke-dasharray:1.24,1.24;"/>
                    </g>
                    <g transform="matrix(1.34008,0,0,0.988388,-22.5511,8.23069)">
                        <rect x="462.64" y="708.811" width="9.379" height="1853.6" style="fill:none;stroke:rgb(0,255,0);stroke-width:1.24px;stroke-dasharray:1.24,1.24;"/>
                    </g>
                </g>
            </g>
            <g transform="matrix(1,0,0,0.473055,1.47326,1337.92)">
                <g>
                    <g transform="matrix(1.34008,0,0,0.988388,-169.862,8.23069)">
                        <rect x="462.64" y="708.811" width="9.379" height="1853.6" style="fill:none;stroke:rgb(0,255,0);stroke-width:1.25px;stroke-dasharray:1.25,1.25;"/>
                    </g>
                    <g transform="matrix(1.34008,0,0,0.988388,-133.034,8.23069)">
                        <rect x="462.64" y="708.811" width="9.379" height="1853.6" style="fill:none;stroke:rgb(0,255,0);stroke-width:1.25px;stroke-dasharray:1.25,1.25;"/>
                    </g>
                    <g transform="matrix(1.34008,0,0,0.988388,-96.2066,8.23069)">
                        <rect x="462.64" y="708.811" width="9.379" height="1853.6" style="fill:none;stroke:rgb(0,255,0);stroke-width:1.25px;stroke-dasharray:1.25,1.25;"/>
                    </g>
                    <g transform="matrix(1.34008,0,0,0.988388,-59.3789,8.23069)">
                        <rect x="462.64" y="708.811" width="9.379" height="1853.6" style="fill:none;stroke:rgb(0,255,0);stroke-width:1.25px;stroke-dasharray:1.25,1.25;"/>
                    </g>
                    <g transform="matrix(1.34008,0,0,0.988388,-22.5511,8.23069)">
                        <rect x="462.64" y="708.811" width="9.379" height="1853.6" style="fill:none;stroke:rgb(0,255,0);stroke-width:1.25px;stroke-dasharray:1.25,1.25;"/>
                    </g>
                </g>
                <g transform="matrix(1,0,0,1,1591.13,-2.27374e-13)">
                    <g transform="matrix(1.34008,0,0,0.988388,-169.862,8.23069)">
                        <rect x="462.64" y="708.811" width="9.379" height="1853.6" style="fill:none;stroke:rgb(0,255,0);stroke-width:1.25px;stroke-dasharray:1.25,1.25;"/>
                    </g>
                    <g transform="matrix(1.34008,0,0,0.988388,-133.034,8.23069)">
                        <rect x="462.64" y="708.811" width="9.379" height="1853.6" style="fill:none;stroke:rgb(0,255,0);stroke-width:1.25px;stroke-dasharray:1.25,1.25;"/>
                    </g>
                    <g transform="matrix(1.34008,0,0,0.988388,-96.2066,8.23069)">
                        <rect x="462.64" y="708.811" width="9.379" height="1853.6" style="fill:none;stroke:rgb(0,255,0);stroke-width:1.25px;stroke-dasharray:1.25,1.25;"/>
                    </g>
                    <g transform="matrix(1.34008,0,0,0.988388,-59.3789,8.23069)">
                        <rect x="462.64" y="708.811" width="9.379" height="1853.6" style="fill:none;stroke:rgb(0,255,0);stroke-width:1.25px;stroke-dasharray:1.25,1.25;"/>
                    </g>
                    <g transform="matrix(1.34008,0,0,0.988388,-22.5511,8.23069)">
                        <rect x="462.64" y="708.811" width="9.379" height="1853.6" style="fill:none;stroke:rgb(0,255,0);stroke-width:1.25px;stroke-dasharray:1.25,1.25;"/>
                    </g>
                </g>
            </g>
        </g>
        <g transform="matrix(0.674682,0,0,0.642697,418.869,475.37)">
            <g transform="matrix(186.583,0,0,186.583,763.073,866.311)">
                <path d="M0.313,-0L0.313,-0.5L0.125,-0.5C0.09,-0.5 0.06,-0.512 0.036,-0.536C0.012,-0.561 0,-0.59 0,-0.625L0.75,-0.625C0.75,-0.59 0.738,-0.56 0.713,-0.536C0.688,-0.512 0.659,-0.5 0.625,-0.5L0.438,-0.5L0.438,-0L0.313,-0Z" style="fill:rgb(81,81,81);fill-rule:nonzero;"/>
            </g>
            <g transform="matrix(186.583,0,0,186.583,1019.62,866.311)">
                <path d="M0.125,-0C0.09,-0 0.06,-0.012 0.036,-0.036C0.012,-0.061 0,-0.09 0,-0.125L0.75,-0.125C0.75,-0.09 0.738,-0.06 0.713,-0.036C0.688,-0.012 0.659,-0 0.625,-0L0.125,-0ZM0.125,-0.25C0.09,-0.25 0.06,-0.262 0.036,-0.286C0.012,-0.311 0,-0.34 0,-0.375L0.75,-0.375C0.75,-0.34 0.738,-0.31 0.713,-0.286C0.688,-0.262 0.659,-0.25 0.625,-0.25L0.125,-0.25ZM0.125,-0.5C0.09,-0.5 0.06,-0.512 0.036,-0.536C0.012,-0.561 0,-0.59 0,-0.625L0.75,-0.625C0.75,-0.59 0.738,-0.56 0.713,-0.536C0.688,-0.512 0.659,-0.5 0.625,-0.5L0.125,-0.5Z" style="fill:rgb(81,81,81);fill-rule:nonzero;"/>
            </g>
            <g transform="matrix(186.583,0,0,186.583,1276.18,866.311)">
                <path d="M0.125,-0C0.09,-0 0.06,-0.012 0.036,-0.036C0.012,-0.061 0,-0.09 0,-0.125L0.625,-0.125L0.625,-0.25L0,-0.25L0,-0.625L0.75,-0.625C0.75,-0.59 0.738,-0.56 0.713,-0.536C0.688,-0.512 0.659,-0.5 0.625,-0.5L0.125,-0.5L0.125,-0.375L0.75,-0.375L0.75,-0L0.125,-0Z" style="fill:rgb(81,81,81);fill-rule:nonzero;"/>
            </g>
            <g transform="matrix(186.583,0,0,186.583,1532.73,866.311)">
                <path d="M0,-0L0,-0.625L0.125,-0.625L0.125,-0.125L0.75,-0.125C0.75,-0.09 0.738,-0.06 0.713,-0.036C0.688,-0.012 0.659,-0 0.625,-0L0,-0Z" style="fill:rgb(81,81,81);fill-rule:nonzero;"/>
            </g>
            <g transform="matrix(186.583,0,0,186.583,1789.28,866.311)">
                <path d="M0,-0L0,-0.375L0.75,-0.375L0.75,-0L0.625,-0L0.625,-0.25L0.125,-0.25L0.125,-0L0,-0ZM0,-0.5C0,-0.535 0.012,-0.564 0.036,-0.588C0.061,-0.613 0.09,-0.625 0.125,-0.625L0.625,-0.625C0.66,-0.625 0.689,-0.613 0.713,-0.588C0.738,-0.563 0.75,-0.534 0.75,-0.5L0,-0.5Z" style="fill:rgb(81,81,81);fill-rule:nonzero;"/>
            </g>
        </g>
    </g>
</svg>
